<?xml version="1.0" encoding="UTF-8"?>
<svg width="1024px" height="1024px" viewBox="0 0 1024 1024" version="1.1" xmlns="http://www.w3.org/2000/svg" xmlns:xlink="http://www.w3.org/1999/xlink">
    <title>Icon-App-Name.iconset/icon_512x512@2x@2x</title>
    <defs>
        <path d="M824,256.627066 C824,246.845101 824,237.062137 823.943901,227.279173 C823.894902,219.038203 823.799902,210.799233 823.575904,202.562263 C823.091908,184.609328 822.032915,166.502394 818.839939,148.749458 C815.601963,130.740524 810.314002,113.979585 801.981064,97.6166446 C793.789124,81.5337032 783.088204,66.8167567 770.320298,54.0578032 C757.555393,41.2988496 742.834502,30.6048886 726.745621,22.4179184 C710.365742,14.0829487 693.586866,8.79696797 675.558,5.55997976 C657.803131,2.37199136 639.691265,1.31499521 621.738398,0.829996978 C613.495459,0.60699779 605.25252,0.512998132 597.007581,0.461998318 C587.219653,0.401998536 577.431726,0.406998518 567.643798,0.406998518 L453.99664,0 L368.997269,0 L257.361095,0.406998518 C247.554168,0.406998518 237.74724,0.401998536 227.940313,0.461998318 C219.678374,0.512998132 211.420435,0.60699779 203.161496,0.829996978 C185.166629,1.31499521 167.013764,2.37299136 149.216896,5.56497974 C131.164029,8.80096796 114.360154,14.0849487 97.9582749,22.4139184 C81.8353943,30.6018886 67.0825035,41.2968496 54.2905981,54.0578032 C41.5006928,66.8157567 30.7797722,81.5297032 22.5728329,97.6096446 C14.2168948,113.980585 8.91893398,130.751524 5.67295801,148.770458 C2.47698167,166.516394 1.4179895,184.617328 0.930993109,202.562263 C0.708994752,210.800233 0.612995463,219.039203 0.562995833,227.279173 C0.502996277,237.063137 0,249.216093 0,258.999057 L0,369.088656 L0,454.998343 L0.50799624,567.426934 C0.50799624,577.222898 0.503996269,587.018863 0.562995833,596.814827 C0.612995463,605.066797 0.708994752,613.316767 0.931993101,621.565737 C1.4179895,639.541672 2.47898165,657.674606 5.67795797,675.451541 C8.92293395,693.484475 14.2198947,710.269414 22.5688329,726.653354 C30.7767722,742.759296 41.4996928,757.495242 54.2905981,770.272196 C67.0815035,783.049149 81.8303943,793.75711 97.950275,801.95608 C114.362153,810.30205 131.174029,815.595031 149.237895,818.836019 C167.026764,822.029007 185.173629,823.088003 203.161496,823.573002 C211.420435,823.796001 219.679374,823.891 227.941313,823.941 C237.74824,824 247.554168,824 257.361095,824 L370.006261,824 L455.216631,824 L567.643798,824 C577.431726,824 587.219653,824 597.007581,823.941 C605.25252,823.891 613.495459,823.796001 621.738398,823.573002 C639.698265,823.087003 657.816131,822.027007 675.578999,818.832019 C693.596866,815.591031 710.367742,810.30005 726.738621,801.95908 C742.830502,793.76111 757.554393,783.051149 770.320298,770.272196 C783.086204,757.497242 793.786124,742.763296 801.978064,726.660354 C810.316002,710.268414 815.603963,693.475475 818.843939,675.430541 C822.033915,657.660606 823.091908,639.534672 823.576904,621.565737 C823.799902,613.315767 823.894902,605.065797 823.943901,596.814827 C824,587.018863 824,577.222898 824,567.426934 C824,567.426934 824,456.983336 824,454.998343 L824,368.998657 C824,367.532662 824,256.627066 824,256.627066" id="path-1"></path>
        <filter x="-2.4%" y="-1.2%" width="104.9%" height="104.9%" filterUnits="objectBoundingBox" id="filter-3">
            <feOffset dx="0" dy="10" in="SourceAlpha" result="shadowOffsetOuter1"></feOffset>
            <feGaussianBlur stdDeviation="5" in="shadowOffsetOuter1" result="shadowBlurOuter1"></feGaussianBlur>
            <feColorMatrix values="0 0 0 0 0   0 0 0 0 0   0 0 0 0 0  0 0 0 0.3 0" type="matrix" in="shadowBlurOuter1"></feColorMatrix>
        </filter>
        <linearGradient x1="50%" y1="0%" x2="50%" y2="99.2788462%" id="linearGradient-4">
            <stop stop-color="#007AFF" offset="0%"></stop>
            <stop stop-color="#55BEF0" offset="100%"></stop>
        </linearGradient>
        <path d="M73.6121368,377 L123.914435,377 L123.914435,343.514668 L74.2350695,343.514668 C61.0271415,343.514668 50.9333608,340.058759 43.9537273,333.146941 C36.9743518,326.235046 33.4846641,315.970963 33.4846641,302.354693 L33.4846641,74.6431239 C33.4846641,61.0271113 36.9743518,50.7792893 43.9537273,43.8996578 C50.9333608,37.0202845 61.0271415,33.5805978 74.2350695,33.5805978 L404.762995,33.5805978 C417.755923,33.5805978 427.814214,37.0202845 434.937869,43.8996578 C442.058944,50.7792893 445.619481,61.0271113 445.619481,74.6431239 L445.619481,125.69446 L479,125.69446 L479,73 C479,48.916131 472.855847,30.7284957 460.567542,18.4370974 C448.279237,6.14569915 429.885494,0 405.386315,0 L73.6121368,0 C49.1137315,0 30.7203762,6.10995108 18.4320708,18.3298532 C6.14402361,30.5500135 0,48.7733969 0,73 L0,304.201461 C0,328.428171 6.14402361,346.617935 18.4320708,358.770755 C30.7203762,370.923585 49.1137315,377 73.6121368,377 Z" id="path-5"></path>
        <filter x="-2.7%" y="-2.9%" width="105.4%" height="106.9%" filterUnits="objectBoundingBox" id="filter-6">
            <feOffset dx="0" dy="2" in="SourceAlpha" result="shadowOffsetOuter1"></feOffset>
            <feGaussianBlur stdDeviation="4" in="shadowOffsetOuter1" result="shadowBlurOuter1"></feGaussianBlur>
            <feComposite in="shadowBlurOuter1" in2="SourceAlpha" operator="out" result="shadowBlurOuter1"></feComposite>
            <feColorMatrix values="0 0 0 0 0   0 0 0 0 0   0 0 0 0 0  0 0 0 0.5 0" type="matrix" in="shadowBlurOuter1"></feColorMatrix>
        </filter>
        <path d="M190.64287,486 L527.355581,486 C551.79269,486 570.176037,479.854045 582.505622,467.562135 C594.835207,455.270225 601,437.150686 601,413.203517 L601,181.796716 C601,157.712852 594.835207,139.559036 582.505622,127.335267 C570.176037,115.111756 551.79269,109 527.355581,109 L190.64287,109 C166.134236,109 147.733202,115.094075 135.439766,127.282225 C123.146589,139.470376 117,157.641872 117,181.796716 L117,413.203517 C117,437.429959 123.146589,455.619317 135.439766,467.77159 C147.733202,479.923863 166.134236,486 190.64287,486 Z M150.390583,227.660823 L567.500969,227.660823 L567.500969,411.462832 C567.500969,425.00693 563.937654,435.252993 556.811025,442.201021 C549.686977,449.14879 539.660636,452.622675 526.732001,452.622675 L191.266063,452.622675 C178.05262,452.622675 167.93668,449.14879 160.918241,442.201021 C153.899802,435.252993 150.390583,425.00693 150.390583,411.462832 L150.390583,227.660823 Z" id="path-7"></path>
        <filter x="-2.7%" y="-2.9%" width="105.4%" height="106.9%" filterUnits="objectBoundingBox" id="filter-8">
            <feOffset dx="0" dy="2" in="SourceAlpha" result="shadowOffsetOuter1"></feOffset>
            <feGaussianBlur stdDeviation="4" in="shadowOffsetOuter1" result="shadowBlurOuter1"></feGaussianBlur>
            <feColorMatrix values="0 0 0 0 0   0 0 0 0 0   0 0 0 0 0  0 0 0 0.5 0" type="matrix" in="shadowBlurOuter1"></feColorMatrix>
        </filter>
    </defs>
    <g id="Template---Icons---App" stroke="none" stroke-width="1" fill="none" fill-rule="evenodd">
        <g id="App-Icons---@2x" transform="translate(0.000000, -590.000000)">
            <g id="512x512@2x" transform="translate(0.000000, 590.000000)">
                <g id="Artwork" transform="translate(100.000000, 100.000000)">
                    <mask id="mask-2" fill="white">
                        <use xlink:href="#path-1"></use>
                    </mask>
                    <g id="Mask">
                        <use fill="black" fill-opacity="1" filter="url(#filter-3)" xlink:href="#path-1"></use>
                        <use fill="#FFFFFF" fill-rule="evenodd" xlink:href="#path-1"></use>
                    </g>
                    <g id="Icon-Center-Image-Artwork" mask="url(#mask-2)">
                        <rect id="Rectangle" fill="url(#linearGradient-4)" x="0" y="0" width="824" height="824"></rect>
                        <g id="Regular-L" transform="translate(111.000000, 169.000000)" fill-rule="nonzero">
                            <g id="Path">
                                <use fill="black" fill-opacity="1" filter="url(#filter-6)" xlink:href="#path-5"></use>
                                <use fill-opacity="0.9" fill="#FFFFFF" xlink:href="#path-5"></use>
                            </g>
                            <g id="Shape">
                                <use fill="black" fill-opacity="1" filter="url(#filter-8)" xlink:href="#path-7"></use>
                                <use fill="#FFFFFF" xlink:href="#path-7"></use>
                            </g>
                            <path d="M323.547882,189 C317.917205,189 313.084953,186.943331 309.051128,182.829992 C305.017043,178.716393 303,173.974022 303,168.602879 C303,163.094564 305.017043,158.283738 309.051128,154.170399 C313.084953,150.0568 317.917205,148 323.547882,148 C329.253086,148 334.087422,150.0568 338.05089,154.170399 C342.016963,158.283738 344,163.094564 344,168.602879 C344,173.974022 342.016963,178.716393 338.05089,182.829992 C334.087422,186.943331 329.253086,189 323.547882,189 Z" id="Path" fill="#28CD41"></path>
                            <path d="M257.450163,189 C251.956186,189 247.174397,186.93056 243.104795,182.791681 C239.034932,178.652802 237,173.904934 237,168.548078 C237,163.054415 239.034932,158.256384 243.104795,154.153987 C247.174397,150.051329 251.956186,148 257.450163,148 C263.08199,148 267.914985,150.051329 271.949147,154.153987 C275.983049,158.256384 278,163.054415 278,168.548078 C278,173.904934 275.983049,178.652802 271.949147,182.791681 C267.914985,186.93056 263.08199,189 257.450163,189 Z" id="Path" fill="#FFCC00"></path>
                            <path d="M191.343061,189 C185.710973,189 180.912506,186.93056 176.94766,182.791681 C172.982553,178.652802 171,173.904934 171,168.548078 C171,163.054415 172.982553,158.256384 176.94766,154.153987 C180.912506,150.051329 185.710973,148 191.343061,148 C196.974888,148 201.825733,150.051329 205.895596,154.153987 C209.965199,158.256384 212,163.054415 212,168.548078 C212,173.904934 209.965199,178.652802 205.895596,182.791681 C201.825733,186.93056 196.974888,189 191.343061,189 Z" id="Path" fill="#FF3B30"></path>
                        </g>
                    </g>
                </g>
            </g>
        </g>
    </g>
</svg>