<?xml version="1.0" encoding="UTF-8"?>
<svg width="824px" height="824px" viewBox="0 0 824 824" version="1.1" xmlns="http://www.w3.org/2000/svg" xmlns:xlink="http://www.w3.org/1999/xlink">
    <title>Artwork</title>
    <defs>
        <path d="M824,256.627066 C824,246.845101 824,237.062137 823.943901,227.279173 C823.894902,219.038203 823.799902,210.799233 823.575904,202.562263 C823.091908,184.609328 822.032915,166.502394 818.839939,148.749458 C815.601963,130.740524 810.314002,113.979585 801.981064,97.6166446 C793.789124,81.5337032 783.088204,66.8167567 770.320298,54.0578032 C757.555393,41.2988496 742.834502,30.6048886 726.745621,22.4179184 C710.365742,14.0829487 693.586866,8.79696797 675.558,5.55997976 C657.803131,2.37199136 639.691265,1.31499521 621.738398,0.829996978 C613.495459,0.60699779 605.25252,0.512998132 597.007581,0.461998318 C587.219653,0.401998536 577.431726,0.406998518 567.643798,0.406998518 L453.99664,0 L368.997269,0 L257.361095,0.406998518 C247.554168,0.406998518 237.74724,0.401998536 227.940313,0.461998318 C219.678374,0.512998132 211.420435,0.60699779 203.161496,0.829996978 C185.166629,1.31499521 167.013764,2.37299136 149.216896,5.56497974 C131.164029,8.80096796 114.360154,14.0849487 97.9582749,22.4139184 C81.8353943,30.6018886 67.0825035,41.2968496 54.2905981,54.0578032 C41.5006928,66.8157567 30.7797722,81.5297032 22.5728329,97.6096446 C14.2168948,113.980585 8.91893398,130.751524 5.67295801,148.770458 C2.47698167,166.516394 1.4179895,184.617328 0.930993109,202.562263 C0.708994752,210.800233 0.612995463,219.039203 0.562995833,227.279173 C0.502996277,237.063137 0,249.216093 0,258.999057 L0,369.088656 L0,454.998343 L0.50799624,567.426934 C0.50799624,577.222898 0.503996269,587.018863 0.562995833,596.814827 C0.612995463,605.066797 0.708994752,613.316767 0.931993101,621.565737 C1.4179895,639.541672 2.47898165,657.674606 5.67795797,675.451541 C8.92293395,693.484475 14.2198947,710.269414 22.5688329,726.653354 C30.7767722,742.759296 41.4996928,757.495242 54.2905981,770.272196 C67.0815035,783.049149 81.8303943,793.75711 97.950275,801.95608 C114.362153,810.30205 131.174029,815.595031 149.237895,818.836019 C167.026764,822.029007 185.173629,823.088003 203.161496,823.573002 C211.420435,823.796001 219.679374,823.891 227.941313,823.941 C237.74824,824 247.554168,824 257.361095,824 L370.006261,824 L455.216631,824 L567.643798,824 C577.431726,824 587.219653,824 597.007581,823.941 C605.25252,823.891 613.495459,823.796001 621.738398,823.573002 C639.698265,823.087003 657.816131,822.027007 675.578999,818.832019 C693.596866,815.591031 710.367742,810.30005 726.738621,801.95908 C742.830502,793.76111 757.554393,783.051149 770.320298,770.272196 C783.086204,757.497242 793.786124,742.763296 801.978064,726.660354 C810.316002,710.268414 815.603963,693.475475 818.843939,675.430541 C822.033915,657.660606 823.091908,639.534672 823.576904,621.565737 C823.799902,613.315767 823.894902,605.065797 823.943901,596.814827 C824,587.018863 824,577.222898 824,567.426934 C824,567.426934 824,456.983336 824,454.998343 L824,368.998657 C824,367.532662 824,256.627066 824,256.627066" id="path-1"></path>
        <linearGradient x1="50%" y1="0%" x2="50%" y2="99.2788462%" id="linearGradient-3">
            <stop stop-color="#363948" offset="0%"></stop>
            <stop stop-color="#83859C" offset="100%"></stop>
        </linearGradient>
        <linearGradient x1="50%" y1="0%" x2="50%" y2="100%" id="linearGradient-4">
            <stop stop-color="#46464E" offset="0%"></stop>
            <stop stop-color="#56555A" offset="100%"></stop>
        </linearGradient>
        <linearGradient x1="50%" y1="0%" x2="50%" y2="100%" id="linearGradient-5">
            <stop stop-color="#3F4040" offset="0%"></stop>
            <stop stop-color="#47494D" offset="100%"></stop>
        </linearGradient>
        <linearGradient x1="50%" y1="0%" x2="50%" y2="100%" id="linearGradient-6">
            <stop stop-color="#3F4040" offset="0%"></stop>
            <stop stop-color="#47494D" offset="100%"></stop>
        </linearGradient>
    </defs>
    <g id="Template---Icons---App" stroke="none" stroke-width="1" fill="none" fill-rule="evenodd">
        <g id="App-Icons---@2x" transform="translate(-100.000000, -690.000000)">
            <g id="512x512@2x" transform="translate(0.000000, 590.000000)">
                <g id="Artwork" transform="translate(100.000000, 100.000000)">
                    <mask id="mask-2" fill="white">
                        <use xlink:href="#path-1"></use>
                    </mask>
                    <use id="Mask" fill="#FFFFFF" xlink:href="#path-1"></use>
                    <g id="Icon-Center-Image-Artwork" mask="url(#mask-2)">
                        <rect id="Rectangle" fill="url(#linearGradient-3)" x="0" y="0" width="824" height="824"></rect>
                        <g id="Regular-L" transform="translate(111.000000, 169.000000)">
                            <g id="Group-2" opacity="0.5" fill-rule="nonzero">
                                <path d="M73.6428699,377 L410.355581,377 C434.79269,377 453.176037,370.854045 465.505622,358.562135 C477.835207,346.270225 484,328.150686 484,304.203517 L484,72.7967158 C484,48.7128524 477.835207,30.559036 465.505622,18.3352668 C453.176037,6.11175558 434.79269,0 410.355581,0 L73.6428699,0 C49.1342365,0 30.7332019,6.09407514 18.4397662,18.2822254 C6.14658874,30.4703757 0,48.6418725 0,72.7967158 L0,304.203517 C0,328.429959 6.14658874,346.619317 18.4397662,358.77159 C30.7332019,370.923863 49.1342365,377 73.6428699,377 Z" id="Shape" fill="#2D2C32"></path>
                                <path d="M196.547882,80 C190.917205,80 186.084953,77.9433308 182.051128,73.8299924 C178.017043,69.7163928 176,64.9740217 176,59.6028792 C176,54.0945644 178.017043,49.2837378 182.051128,45.1703995 C186.084953,41.0567998 190.917205,39 196.547882,39 C202.253086,39 207.087422,41.0567998 211.05089,45.1703995 C215.016963,49.2837378 217,54.0945644 217,59.6028792 C217,64.9740217 215.016963,69.7163928 211.05089,73.8299924 C207.087422,77.9433308 202.253086,80 196.547882,80 Z" id="Path" fill="#4C4C54"></path>
                                <path d="M130.450163,80 C124.956186,80 120.174397,77.9305603 116.104795,73.791681 C112.034932,69.6528016 110,64.904934 110,59.548078 C110,54.0544147 112.034932,49.2563843 116.104795,45.153987 C120.174397,41.051329 124.956186,39 130.450163,39 C136.08199,39 140.914985,41.051329 144.949147,45.153987 C148.983049,49.2563843 151,54.0544147 151,59.548078 C151,64.904934 148.983049,69.6528016 144.949147,73.791681 C140.914985,77.9305603 136.08199,80 130.450163,80 Z" id="Path" fill="#4C4C54"></path>
                                <path d="M64.3430609,80 C58.710973,80 53.912506,77.9305603 49.94766,73.791681 C45.9825533,69.6528016 44,64.904934 44,59.548078 C44,54.0544147 45.9825533,49.2563843 49.94766,45.153987 C53.912506,41.051329 58.710973,39 64.3430609,39 C69.9748882,39 74.8257334,41.051329 78.8955964,45.153987 C82.9651988,49.2563843 85,54.0544147 85,59.548078 C85,64.904934 82.9651988,69.6528016 78.8955964,73.791681 C74.8257334,77.9305603 69.9748882,80 64.3430609,80 Z" id="Path" fill="#4C4C54"></path>
                            </g>
                            <g id="Group-2" transform="translate(117.000000, 109.000000)">
                                <path d="M73.6428699,377 L410.355581,377 C434.79269,377 453.176037,370.854045 465.505622,358.562135 C477.835207,346.270225 484,328.150686 484,304.203517 L484,72.7967158 C484,48.7128524 477.835207,30.559036 465.505622,18.3352668 C453.176037,6.11175558 434.79269,0 410.355581,0 L73.6428699,0 C49.1342365,0 30.7332019,6.09407514 18.4397662,18.2822254 C6.14658874,30.4703757 0,48.6418725 0,72.7967158 L0,304.203517 C0,328.429959 6.14658874,346.619317 18.4397662,358.77159 C30.7332019,370.923863 49.1342365,377 73.6428699,377 Z" id="Shape" fill="#2D2C32" fill-rule="nonzero"></path>
                                <path d="M196.547882,80 C190.917205,80 186.084953,77.9433308 182.051128,73.8299924 C178.017043,69.7163928 176,64.9740217 176,59.6028792 C176,54.0945644 178.017043,49.2837378 182.051128,45.1703995 C186.084953,41.0567998 190.917205,39 196.547882,39 C202.253086,39 207.087422,41.0567998 211.05089,45.1703995 C215.016963,49.2837378 217,54.0945644 217,59.6028792 C217,64.9740217 215.016963,69.7163928 211.05089,73.8299924 C207.087422,77.9433308 202.253086,80 196.547882,80 Z" id="Path" fill="#28CD41" fill-rule="nonzero"></path>
                                <path d="M130.450163,80 C124.956186,80 120.174397,77.9305603 116.104795,73.791681 C112.034932,69.6528016 110,64.904934 110,59.548078 C110,54.0544147 112.034932,49.2563843 116.104795,45.153987 C120.174397,41.051329 124.956186,39 130.450163,39 C136.08199,39 140.914985,41.051329 144.949147,45.153987 C148.983049,49.2563843 151,54.0544147 151,59.548078 C151,64.904934 148.983049,69.6528016 144.949147,73.791681 C140.914985,77.9305603 136.08199,80 130.450163,80 Z" id="Path" fill="#FFCC00" fill-rule="nonzero"></path>
                                <path d="M64.3430609,80 C58.710973,80 53.912506,77.9305603 49.94766,73.791681 C45.9825533,69.6528016 44,64.904934 44,59.548078 C44,54.0544147 45.9825533,49.2563843 49.94766,45.153987 C53.912506,41.051329 58.710973,39 64.3430609,39 C69.9748882,39 74.8257334,41.051329 78.8955964,45.153987 C82.9651988,49.2563843 85,54.0544147 85,59.548078 C85,64.904934 82.9651988,69.6528016 78.8955964,73.791681 C74.8257334,77.9305603 69.9748882,80 64.3430609,80 Z" id="Path" fill="#FF3B30" fill-rule="nonzero"></path>
                                <rect id="Rectangle" fill="url(#linearGradient-4)" x="284" y="39" width="156" height="41" rx="20"></rect>
                                <rect id="Rectangle" fill="url(#linearGradient-5)" x="44" y="111" width="396" height="218" rx="20"></rect>
                                <path d="M196.547882,80 C190.917205,80 186.084953,77.9433308 182.051128,73.8299924 C178.017043,69.7163928 176,64.9740217 176,59.6028792 C176,54.0945644 178.017043,49.2837378 182.051128,45.1703995 C186.084953,41.0567998 190.917205,39 196.547882,39 C202.253086,39 207.087422,41.0567998 211.05089,45.1703995 C215.016963,49.2837378 217,54.0945644 217,59.6028792 C217,64.9740217 215.016963,69.7163928 211.05089,73.8299924 C207.087422,77.9433308 202.253086,80 196.547882,80 Z" id="Path" fill="#28CD41" fill-rule="nonzero"></path>
                                <path d="M130.450163,80 C124.956186,80 120.174397,77.9305603 116.104795,73.791681 C112.034932,69.6528016 110,64.904934 110,59.548078 C110,54.0544147 112.034932,49.2563843 116.104795,45.153987 C120.174397,41.051329 124.956186,39 130.450163,39 C136.08199,39 140.914985,41.051329 144.949147,45.153987 C148.983049,49.2563843 151,54.0544147 151,59.548078 C151,64.904934 148.983049,69.6528016 144.949147,73.791681 C140.914985,77.9305603 136.08199,80 130.450163,80 Z" id="Path" fill="#FFCC00" fill-rule="nonzero"></path>
                                <path d="M64.3430609,80 C58.710973,80 53.912506,77.9305603 49.94766,73.791681 C45.9825533,69.6528016 44,64.904934 44,59.548078 C44,54.0544147 45.9825533,49.2563843 49.94766,45.153987 C53.912506,41.051329 58.710973,39 64.3430609,39 C69.9748882,39 74.8257334,41.051329 78.8955964,45.153987 C82.9651988,49.2563843 85,54.0544147 85,59.548078 C85,64.904934 82.9651988,69.6528016 78.8955964,73.791681 C74.8257334,77.9305603 69.9748882,80 64.3430609,80 Z" id="Path" fill="#FF3B30" fill-rule="nonzero"></path>
                                <rect id="Rectangle" fill="url(#linearGradient-4)" x="284" y="39" width="156" height="41" rx="20"></rect>
                                <rect id="Rectangle" fill="url(#linearGradient-6)" x="44" y="111" width="396" height="223" rx="20"></rect>
                            </g>
                        </g>
                    </g>
                </g>
            </g>
        </g>
    </g>
</svg>