<?xml version="1.0" encoding="UTF-8"?>
<svg width="22px" height="22px" viewBox="0 0 22 22" version="1.1" xmlns="http://www.w3.org/2000/svg" xmlns:xlink="http://www.w3.org/1999/xlink">
    <title>Group</title>
    <defs>
        <path d="M2.52788281,12.2726114 L4.16356237,12.2726114 L4.16356237,10.8451122 L2.54771821,10.8451122 C2.19082987,10.8451122 1.91490733,10.7492851 1.71995058,10.5576308 C1.52499383,10.3659631 1.42751545,10.0817775 1.42751545,9.70507403 L1.42751545,2.56753737 C1.42751545,2.19083393 1.52499383,1.90830636 1.71995058,1.71995464 C1.91490733,1.53160292 2.19082987,1.43742706 2.54771821,1.43742706 L12.9863772,1.43742706 C13.343252,1.43742706 13.6191678,1.53160292 13.8141246,1.71995464 C14.0090813,1.90830636 14.1065597,2.19083393 14.1065597,2.56753737 L14.1065597,4.31226088 L15.5340792,4.31226088 L15.5340792,2.49814392 C15.5340792,1.66542251 15.3242476,1.04088822 14.9045844,0.624541056 C14.4849212,0.208180352 13.8521238,0 13.0061923,0 L2.52788281,0 C1.68195134,0 1.04915399,0.208180352 0.62949077,0.624541056 C0.209830257,1.04088822 0,1.66542251 0,2.49814392 L0,9.78439533 C0,10.6171032 0.209830257,11.2399862 0.62949077,11.6530444 C1.04915399,12.0660891 1.68195134,12.2726114 2.52788281,12.2726114 Z M6.46345379,16 L16.9615784,16 C17.8075099,16 18.4403005,15.7918217 18.8599502,15.375465 C19.2796675,14.9591084 19.4895262,14.3378773 19.4895262,13.5117717 L19.4895262,6.2156067 C19.4895262,5.38289883 19.2796675,4.7600158 18.8599502,4.34695761 C18.4403005,3.93391296 17.8075099,3.72739063 16.9615784,3.72739063 L6.46345379,3.72739063 C5.61752232,3.72739063 4.98472497,3.93391296 4.56506175,4.34695761 C4.14539853,4.7600158 3.93556692,5.38289883 3.93556692,6.2156067 L3.93556692,13.5117717 C3.93556692,14.3444864 4.14539853,14.9673694 4.56506175,15.3804208 C4.98472497,15.7934736 5.61752232,16 6.46345379,16 Z M5.36306613,7.79182066 L18.0619661,7.79182066 L18.0619661,13.4324667 C18.0619661,13.8091701 17.9644809,14.0933496 17.7695107,14.2850052 C17.5745539,14.4766622 17.2986381,14.5724906 16.9417633,14.5724906 L6.48326889,14.5724906 C6.12639409,14.5724906 5.85047831,14.4766622 5.65552156,14.2850052 C5.46055128,14.0933496 5.36306613,13.8091701 5.36306613,13.4324667 L5.36306613,7.79182066 Z M6.51301184,6.4931805 C6.30813401,6.4931805 6.13465038,6.41883328 5.99256096,6.27013883 C5.85047155,6.12144438 5.77942684,5.95126327 5.77942684,5.7595955 C5.77942684,5.56133623 5.85047155,5.38785937 5.99256096,5.23916492 C6.13465038,5.09045693 6.30813401,5.01610294 6.51301184,5.01610294 C6.71788968,5.01610294 6.89302456,5.09045693 7.0384165,5.23916492 C7.18380843,5.38785937 7.2565044,5.56133623 7.2565044,5.7595955 C7.2565044,5.95126327 7.18380843,6.12144438 7.0384165,6.27013883 C6.89302456,6.41883328 6.71788968,6.4931805 6.51301184,6.4931805 Z M8.85253346,6.4931805 C8.65427419,6.4931805 8.48244859,6.41883328 8.33705666,6.27013883 C8.19166472,6.12144438 8.11896876,5.95126327 8.11896876,5.7595955 C8.11896876,5.56133623 8.19166472,5.38785937 8.33705666,5.23916492 C8.48244859,5.09045693 8.65427419,5.01610294 8.85253346,5.01610294 C9.0574113,5.01610294 9.23254618,5.09045693 9.37793812,5.23916492 C9.52333005,5.38785937 9.59602602,5.56133623 9.59602602,5.7595955 C9.59602602,5.95126327 9.52333005,6.12144438 9.37793812,6.27013883 C9.23254618,6.41883328 9.0574113,6.4931805 8.85253346,6.4931805 Z M11.2019829,6.4931805 C10.9971051,6.4931805 10.8219702,6.41883328 10.6765783,6.27013883 C10.5311863,6.12144438 10.4584904,5.95126327 10.4584904,5.7595955 C10.4584904,5.56133623 10.5311863,5.38785937 10.6765783,5.23916492 C10.8219702,5.09045693 10.9971051,5.01610294 11.2019829,5.01610294 C11.4068608,5.01610294 11.5803444,5.09045693 11.7224338,5.23916492 C11.8645232,5.38785937 11.9355679,5.56133623 11.9355679,5.7595955 C11.9355679,5.95126327 11.8645232,6.12144438 11.7224338,6.27013883 C11.5803444,6.41883328 11.4068608,6.4931805 11.2019829,6.4931805 Z" id="path-1"></path>
    </defs>
    <g id="Page-1" stroke="none" stroke-width="1" fill="none" fill-rule="evenodd">
        <g id="MacBook-Pro-16&quot;" transform="translate(-887.000000, -312.000000)">
            <g id="Group" transform="translate(887.000000, 312.000000)">
                <g id="Rectangle" transform="translate(1.000000, 3.000000)">
                    <mask id="mask-2" fill="white">
                        <use xlink:href="#path-1"></use>
                    </mask>
                    <use id="Mask" fill="#000000" fill-rule="nonzero" xlink:href="#path-1"></use>
                </g>
                <rect id="Rectangle" x="0" y="0" width="22" height="22"></rect>
            </g>
        </g>
    </g>
</svg>